HIERARCHY
ROOT ui
{
	 OFFSET 0 0 0
	 CHANNELS 3 XPosition YPosition Z Position
	 EndSite
	 {
	 OFFSET 0 -1 0
	 }
}
ROOT li
{
	 OFFSET 0 0 0
	 CHANNELS 3 XPosition YPosition Z Position
	 EndSite
	 {
	 OFFSET 0 -1 0
	 }
}
ROOT ul
{
	 OFFSET 0 0 0
	 CHANNELS 3 XPosition YPosition Z Position
	 EndSite
	 {
	 OFFSET 0 -1 0
	 }
}
ROOT ll
{
	 OFFSET 0 0 0
	 CHANNELS 3 XPosition YPosition Z Position
	 EndSite
	 {
	 OFFSET 0 -1 0
	 }
}
ROOT tt
{
	 OFFSET 0 0 0
	 CHANNELS 3 XPosition YPosition Z Position
	 EndSite
	 {
	 OFFSET 0 -1 0
	 }
}
ROOT tb
{
	 OFFSET 0 0 0
	 CHANNELS 3 XPosition YPosition Z Position
	 EndSite
	 {
	 OFFSET 0 -1 0
	 }
}
ROOT td
{
	 OFFSET 0 0 0
	 CHANNELS 3 XPosition YPosition Z Position
	 EndSite
	 {
	 OFFSET 0 -1 0
	 }
}
ROOT v
{
	 OFFSET 0 0 0
	 CHANNELS 3 XPosition YPosition Z Position
	 EndSite
	 {
	 OFFSET 0 -1 0
	 }
}
ROOT bn
{
	 OFFSET 0 0 0
	 CHANNELS 3 XPosition YPosition Z Position
	 EndSite
	 {
	 OFFSET 0 -1 0
	 }
}
MOTION
Frames: 19
Frame Time: 0.002
0.004253756999969482	-1.6744700074195862E-4	0		0.4346560363769531	-2.38865283203125	0		-1.127640625	-0.026247117996215822	0		-0.6846931762695313	-2.522048095703125	0		1.562228515625	-0.542996826171875	0		3.121689208984375	0.07044310760498047	0		4.653296875	0.21039682006835939	0		5.6048291015625	0.2598416748046875	0		-0.2532605438232422	5.96129541015625	0		
0.01228830909729004	0.014609110832214356	0		0.473383056640625	-2.38857861328125	0		-1.1289468994140626	-0.02627058219909668	0		-0.7039497680664063	-2.52065576171875	0		1.5378641357421876	-0.5454690551757813	0		3.124701416015625	0.08436203765869141	0		4.65198828125	0.21042457580566407	0		5.60093115234375	0.2479547119140625	0		-0.28209365844726564	5.9409033203125	0		
-0.0013748769760131836	-0.0031313600540161133	0		0.47989553833007814	-2.39977490234375	0		-1.1429456787109376	-0.01500558376312256	0		-0.6696953125	-2.5435	0		1.56762939453125	-0.5451856079101562	0		3.119127197265625	0.07046419525146484	0		4.64659619140625	0.20453778076171875	0		5.600037109375	0.2480023956298828	0		-0.2569022827148438	5.9622802734375	0		
-0.0025678610801696776	-0.0031584320068359377	0		0.45279730224609377	-2.396203857421875	0		-1.1313936767578125	-0.02633641815185547	0		-0.7289441528320313	-2.546204345703125	0		1.5254971923828125	-0.542262451171875	0		3.108279296875	0.0856871337890625	0		4.6454013671875	0.20454815673828125	0		5.59276953125	0.24838874816894532	0		-0.28463986206054687	5.9408515625	0		
-6.234809756278991E-4	-2.630620002746582E-4	0		0.4298572692871094	-2.388734375	0		-1.118474853515625	-0.02470066261291504	0		-0.6534579467773437	-2.565001708984375	0		1.574250244140625	-0.5484288330078125	0		3.1209228515625	0.07535710144042969	0		4.64323095703125	0.20257038879394532	0		5.59493505859375	0.26034625244140625	0		-0.25735675048828127	5.96016845703125	0		
0.023324176788330077	-8.788290023803711E-4	0		0.479676513671875	-2.3959404296875	0		-1.1254046630859376	-0.019616167068481447	0		-0.69354541015625	-2.567157470703125	0		1.5546932373046876	-0.52703369140625	0		3.122493408203125	0.10228057861328126	0		4.651181640625	0.20235078430175782	0		5.60357373046875	0.27192474365234376	0		-0.25844146728515627	5.960123046875	0		
0.02236260986328125	-9.320889711380005E-4	0		0.4678914489746094	-2.388741455078125	0		-1.140408203125	-0.021355381011962892	0		-0.6805875244140625	-2.57153369140625	0		1.5874971923828125	-0.5378529052734375	0		3.10826025390625	0.09054525756835938	0		4.64156396484375	0.21752566528320313	0		5.59992138671875	0.25993807983398437	0		-0.26041378784179686	5.9610908203125	0		
-0.011457152366638183	0.001758836030960083	0		0.44885064697265625	-2.396388427734375	0		-1.1353980712890626	-0.02655959129333496	0		-0.7086936645507812	-2.58197998046875	0		1.583557861328125	-0.5408388061523437	0		3.11654345703125	0.09728971099853516	0		4.6424140625	0.2054424285888672	0		5.59633203125	0.2479263610839844	0		-0.2622933349609375	5.962048828125	0		
-0.004291121006011963	-4.961180090904235E-4	0		0.47399838256835936	-2.400052734375	0		-1.13209375	-0.022729028701782228	0		-0.6719368286132813	-2.60291845703125	0		1.582773681640625	-0.5409053344726562	0		3.106599365234375	0.09043659973144531	0		4.6406044921875	0.20441079711914062	0		5.589353515625	0.2481932678222656	0		-0.2905524597167969	5.94259765625	0		
-0.004989233016967774	-5.786769986152649E-4	0		0.42350308227539063	-2.39099365234375	0		-1.12465673828125	-0.016999223709106445	0		-0.7065499877929687	-2.599226806640625	0		1.588235595703125	-0.5341221923828126	0		3.1102197265625	0.10426801300048828	0		4.639203125	0.21736117553710937	0		5.5959375	0.24249415588378906	0		-0.2628409729003906	5.96086962890625	0		
0.014510699272155762	0.0038702709674835207	0		0.4649564208984375	-2.3890458984375	0		-1.1252657470703125	-0.017094301223754882	0		-0.690158203125	-2.59970947265625	0		1.5845369873046875	-0.5381422119140625	0		3.10940478515625	0.09518389892578125	0		4.63859375	0.21727783203125	0		5.5978056640625	0.25952996826171876	0		-0.26346218872070315	5.9607763671875	0		
-0.006117289066314697	-7.749940156936646E-4	0		0.421314697265625	-2.394164794921875	0		-1.1425975341796875	-0.00881297492980957	0		-0.6860406494140625	-2.615924072265625	0		1.5751124267578125	-0.5340390625	0		3.132016845703125	0.1005573959350586	0		4.6339384765625	0.21127328491210937	0		5.59743505859375	0.2593632507324219	0		-0.2639888916015625	5.96067236328125	0		
0.018447513580322265	-0.0014610929489135742	0		0.45885491943359374	-2.3961474609375	0		-1.1471165771484375	-0.0128363037109375	0		-0.70443994140625	-2.61462841796875	0		1.57468408203125	-0.5341529541015625	0		3.12072802734375	0.10669434356689453	0		4.63350927734375	0.2111615447998047	0		5.5941630859375	0.24722225952148438	0		-0.2918944091796875	5.9401796875	0		
-0.009953149795532227	-0.003947788953781128	0		0.41850372314453127	-2.3963603515625	0		-1.130620361328125	-0.020350299835205077	0		-0.6970777587890625	-2.62793505859375	0		1.580183349609375	-0.5414149169921875	0		3.112436279296875	0.10875027465820312	0		4.633169921875	0.21103562927246095	0		5.5904697265625	0.2593092956542969	0		-0.2647627563476562	5.96043017578125	0		
0.01785557746887207	-0.001727903962135315	0		0.4732142333984375	-2.398756103515625	0		-1.1237147216796874	-0.013651805877685547	0		-0.7076015625	-2.63984326171875	0		1.5860892333984375	-0.534693359375	0		3.11681689453125	0.09250081634521484	0		4.64189208984375	0.20969100952148437	0		5.600806640625	0.2394506072998047	0		-0.24981405639648438	5.9689453125	0		
-1.4891399443149567E-4	0.0055294461250305176	0		0.44916595458984376	-2.393361083984375	0		-1.1238839111328125	-0.013803996086120606	0		-0.6676665649414063	-2.63591064453125	0		1.593895263671875	-0.5360276489257813	0		3.13635107421875	0.12290707397460937	0		4.6400205078125	0.22258192443847657	0		5.59243896484375	0.27252459716796873	0		-0.2632319030761719	5.95809326171875	0		
0.012711217880249023	0.0030687899589538574	0		0.46886520385742186	-2.402979736328125	0		-1.1438780517578124	-0.00951275634765625	0		-0.6970457763671875	-2.6484091796875	0		1.5938046875	-0.5361912841796875	0		3.1058798828125	0.10643378448486328	0		4.6378388671875	0.21846614074707033	0		5.59652197265625	0.25817047119140624	0		-0.26527862548828124	5.95997412109375	0		
-0.007416952133178711	-0.001649701952934265	0		0.4159300537109375	-2.398946044921875	0		-1.143897216796875	-0.009690216064453125	0		-0.659507080078125	-2.668449462890625	0		1.5906953125	-0.5402973022460937	0		3.11501806640625	0.11305178833007813	0		4.64195556640625	0.2241996612548828	0		5.5900908203125	0.25822698974609376	0		-0.2653018493652344	5.959796875	0		
0.014530454635620117	-0.006341096878051758	0		0.4419017639160156	-2.402728759765625	0		-1.1311072998046876	-0.02117538833618164	0		-0.7293958129882813	-2.66504150390625	0		1.5738590087890625	-0.5350985107421875	0		3.1199013671875	0.10575277709960937	0		4.63786376953125	0.2181075744628906	0		5.59357421875	0.24560401916503907	0		-0.2652635803222656	5.95960693359375	0		
